<svg xmlns="http://www.w3.org/2000/svg" width="629.338" height="424.938"><defs><clipPath clipPathUnits="userSpaceOnUse" id="a"><path d="M0 500h500V0H0z"/></clipPath></defs><g clip-path="url(#a)" transform="matrix(1.33333 0 0 -1.33333 -18.664 543.158)"><path d="M110.787 88.665H55.685c-.968 0-1.752.785-1.752 1.753v.963c0 .968.784 1.753 1.752 1.753h55.102c.968 0 1.753-.785 1.753-1.753v-.963c0-.968-.785-1.753-1.753-1.753m349.153 0h-15.075c-.968 0-1.753.785-1.753 1.753v.963c0 .968.785 1.753 1.753 1.753h15.076c.968 0 1.753-.785 1.753-1.753v-.963c0-.968-.785-1.753-1.753-1.753m-245.459 0H159.38c-.968 0-1.752.785-1.752 1.753v.963c0 .968.784 1.753 1.752 1.753h55.102c.968 0 1.753-.785 1.753-1.753v-.963c0-.968-.785-1.753-1.753-1.753m80.908 0h-55.101c-.968 0-1.753.785-1.753 1.753v.963c0 .968.785 1.753 1.753 1.753h55.1c.969 0 1.754-.785 1.754-1.753v-.963c0-.968-.785-1.753-1.753-1.753m99.09 0h-75.115c-.968 0-1.753.785-1.753 1.753v.963c0 .968.785 1.753 1.753 1.753h75.114c.968 0 1.753-.785 1.753-1.753v-.963c0-.968-.785-1.753-1.753-1.753" fill="#adbec4"/><path d="M129.256 338.938s-5.82 3.959-14.332.91c-8.512-3.05-10.423-14.514-8.326-23.816 2.096-9.303-9.623-41.065-9.623-41.065s6.091-8.566 27.38-5.287c0 0 15.872 28.846 14.693 49.555-1.178 20.708-9.792 19.703-9.792 19.703" fill="#0e3944"/><path d="M135.976 303.154c8 2.558 12.896-4.103 17.48-16.501 4.583-12.398 6.125-13.641 6.125-13.641l17.693-11.368-1.47-6.625s-16.839 6.593-20.91 10.787c-4.071 4.193-15.783 25.435-15.783 25.435z" fill="#ef6e4b"/><path d="M96.984 223.06s-3.471-17.58-2.9-44.04c0 0-13.677-20.17-2.39-77.719h5.922s4.838 48.962 8.539 62.23c3.7 13.267 17.367 17.338 18.107 57.678zm-27.062-51.69c-3.44 11.338-12.284 30.33-34.969 56.071 0 0-1.353.697-3.182-.42-1.93-1.18-1.93-2.567-1.93-2.567s11.374-24.79 18.628-42.953a16.083 16.083 0 0 1 14.934-10.132z" fill="#ff8b66"/><path d="M111.224 149.444s.078-8.46-5.473-8.604c-7.84-.211-8.128 8.326-17.01 8.049-8.882-.278-27.201-2.498-33.03 11.38-3.01 7.172 1.11 16.376-8.604 23.315-9.715 6.939-4.996 14.71 0 18.875 4.996 4.152-2.154 8.704 3.053 10.825 1.243.499 2.465.444 3.597.066a8.416 8.416 0 0 0 1.888-.954c2.753-1.832 4.685-5.02 4.685-5.02 14.71 40.292 40.902 45.61 40.902 45.61l25.902-8.937c.622-62.685-15.91-94.605-15.91-94.605" fill="#164353"/><path d="M135.976 303.154s-6.043-2.039-14.639-.733c-8.595 1.305-11.39 6.701-17.432 3.228-9.071-5.215-4.826-23.165-2.548-32.498.849-3.479 1.925-12.621-.124-20.166 0 0 12.078-9.398 25.902-8.931l7.542 16.403s16.402 19.625 1.299 42.697" fill="#cfd8dc"/><path d="M120.628 318.21s1.005-8.491-2.136-16.216c0 0 4.485-6.621 8.765-2.264 0 0 .39 7.782 5.199 16.586 3.219 5.896-11.828 1.894-11.828 1.894" fill="#ef6e4b"/><path d="M113.755 317.921s-3.783 2.393-3.356-1.299c.495-4.278 4.667-5.112 5.112-3.616.444 1.495-1.756 4.915-1.756 4.915m21.703 4.631s2.4 3.778 3.59.256c1.377-4.08-2.042-6.614-3.082-5.45-1.04 1.162-.508 5.194-.508 5.194" fill="#ff8b66"/><path d="M127.646 305.134c-6.861-1.536-11.737 2.078-14.747 15.52-1.553 6.934 1.023 11.977 8.708 13.698 7.685 1.72 11.874-1.807 13.427-8.74 3.234-14.445-.3-18.89-7.388-20.478" fill="#ff8b66"/><path d="M133.835 320.308c.275-.663-.174-1.478-1.003-1.822-.83-.343-1.724-.085-1.998.578-.275.663.174 1.479 1.003 1.822.829.344 1.723.085 1.998-.578m-14.029-3.536c.111-.709-.518-1.396-1.404-1.534-.886-.139-1.695.323-1.806 1.032-.11.71.518 1.396 1.404 1.534.887.14 1.695-.323 1.806-1.032" fill="#db614d"/><path d="M129.057 326.571a.353.353 0 0 0-.195.06c-1.172.782-2.835.366-2.853.362a.352.352 0 0 0-.175.681c.08.02 1.986.497 3.42-.46a.35.35 0 0 0-.197-.643m-12.919-2.893a.35.35 0 0 0-.3.532c.887 1.476 2.815 1.858 2.897 1.874a.35.35 0 1 0 .132-.69c-.017-.004-1.704-.343-2.428-1.546a.35.35 0 0 0-.301-.17" fill="#0e3944"/><path d="M129.358 322.806c.19-.852-.04-1.629-.512-1.734-.473-.106-1.012.498-1.203 1.35-.191.852.039 1.63.512 1.735.473.106 1.012-.499 1.203-1.35m-9.533-2.052c.19-.852-.038-1.63-.512-1.734-.473-.106-1.011.498-1.202 1.35-.191.852.038 1.629.512 1.735.473.106 1.01-.5 1.202-1.351m3.082-8.07s4.407.36 6.35 2c0 0-.536-3.444-2.933-3.683-2.398-.239-3.417 1.683-3.417 1.683" fill="#1a4850"/><path d="M126.956 322.713s.155 2.239 1.013 2.273c.858.034 1.886-1.624 1.886-1.624l1.073.918-1.182-.432s-1.054 1.733-1.87 1.554c-1.162-.254-.92-2.69-.92-2.69m-6.604-1.748s-1.096 1.96-1.887 1.624c-.79-.335-1.012-2.273-1.012-2.273l-1.363.373 1.254.113s.215 2.017 1.029 2.203c1.16.265 1.978-2.04 1.978-2.04" fill="#1a4850"/><path d="M125.13 316.66l-.353.67c.571.301.62.708.56.994-.085.406-.415.728-.654.747-.137.007-.255-.11-.347-.354l-.71.264c.304.818.88.862 1.115.846.603-.046 1.19-.638 1.338-1.348.155-.744-.2-1.424-.949-1.819" fill="#db614d"/><path d="M114.298 315.501s-2.116 7.786-.86 13.292c0 0 5.97 8.311 17.49 4.202 0 0 3.416-5.502 5.11-13.2 0 0 .43 2.765-.717 8.925-1.146 6.16-6.61 9.987-14.105 8.754-7.494-1.232-15.514-8.688-6.918-21.973" fill="#0e3944"/><path d="M126.378 334.724s.457-2.032-1.52-7.265c0 0-1.422 1.486-3.087 0-1.665-1.486-5.047-.99-6.2-1.793-1.155-.804-1.155-2.64-1.155-2.64s-1 2.286 0 5.028c0 0-2.248-2.856-1.949-6.383 0 0-3.047.492-2.909 5.52.14 5.027 7.285 13.159 15.3 12.632 8.016-.527 9.924-13.22 9.924-13.22s-.73.575-1.875.32c0 0-.177 2.688-1.979 6.073 0 0 .831-2.444 0-5.08 0 0-2.233 1.17-3.993.804 0 0 1.087 2.127-.557 6.004" fill="#0e3944"/><path d="M101.87 304.045c3.901 3.076 6.94-.837 7.683-6.247.745-5.411-6.309-37.331-11.75-36.154-2.099.455-2.956 8.816-2.956 8.816s2.128 8.974 3.505 22.482c.633 6.208 1.483 9.499 3.518 11.103" fill="#ff8b66"/><path d="M90.52 266.155c-5.253 5.006-14.67 21.611-17.062 30.07l3.986 1.604s12.002-17.17 17.473-21.5c5.471-4.329 7.396-9.15 4.952-13.28-2.444-4.129-8.245 2.053-9.35 3.106" fill="#ff8b66"/><path d="M75.095 307.302c-.275-5.43 4.15-6.717 2.187-10.885-.405-.861-1.022-1.318-1.663-1.545-1.215-.43-2.567-.023-3.474.893-2.103 2.127-5.356 4.379-7.087 5.367-1.968 1.136-.853 1.445-.853 1.445-.19.09-.377.165-.562.24-1.405.588-2.527.81-1.509 1.435 1.146.712 5.208-.772 5.208-.772-5.287 3.521-6.722 2.663-5.756 3.411 1.317 1.024 6.343-1.331 6.494-1.402-2.794 2.641-4.819 3.239-3.71 3.638 1.122.403 6.65-3.599 8.666-5.102.455-.337.733-.554.733-.554-.069 4.439 1.326 3.831 1.326 3.831" fill="#ff8b66"/><path d="M73.037 304.025c.455-.337.733-.554.733-.554s-.946-1.592.279-3.654c0 0-2.25 1.477-1.012 4.208m-4.636-3.118c-.468.257-3.135 1.76-4.196 1.67-.19.09-.377.165-.562.24.713.94 4.227-1.525 4.758-1.91" fill="#ef6e4b"/><path d="M89.365 220.332a1.067 1.067 0 1 0-2.133 0 1.067 1.067 0 0 0 2.133 0m19.04-7.345a1.067 1.067 0 1 0-2.135 0 1.067 1.067 0 0 0 2.135 0m16.225-3.939a1.067 1.067 0 1 0-2.134 0 1.067 1.067 0 0 0 2.133 0m-24.928 25.22a1.067 1.067 0 1 0-2.135 0 1.067 1.067 0 0 0 2.135 0m3.594-10.142a1.067 1.067 0 1 0-2.135.001 1.067 1.067 0 0 0 2.135 0m16.883-5.781a1.067 1.067 0 1 0-2.135 0 1.067 1.067 0 0 0 2.135 0m2.317 17.494a1.067 1.067 0 1 0-2.134 0 1.067 1.067 0 0 0 2.134 0m-11.062 3.64a1.067 1.067 0 1 0-2.135.001 1.067 1.067 0 0 0 2.135 0m-31.512-39.968a1.067 1.067 0 1 0-2.133 0 1.067 1.067 0 0 0 2.133 0M64.71 204.05a1.067 1.067 0 1 0-2.133 0 1.067 1.067 0 0 0 2.134 0m-9.067 8.345a1.07 1.07 0 0 0-.899-.477c-.589 0-1.066.477-1.066 1.066 0 .133.022.255.078.366a8.371 8.371 0 0 0 1.887-.955m29.726-26.801a1.067 1.067 0 1 0-2.134 0 1.067 1.067 0 0 0 2.135 0m-27.299-15.128a1.067 1.067 0 1 0-2.135.001 1.067 1.067 0 0 0 2.135 0m11.152 9.169a1.067 1.067 0 1 0-2.134 0 1.067 1.067 0 0 0 2.134 0m-16.609 8.113a1.067 1.067 0 1 0-2.135 0 1.067 1.067 0 0 0 2.135 0m13.407-31.947a1.067 1.067 0 1 0-2.133 0 1.067 1.067 0 0 0 2.133 0m10.162 56.118a1.067 1.067 0 1 0-2.135 0 1.067 1.067 0 0 0 2.135 0m10.254 17.974a1.067 1.067 0 1 0-2.134 0 1.067 1.067 0 0 0 2.134 0m11.605 14.959a1.067 1.067 0 1 0-2.135.001 1.067 1.067 0 0 0 2.135 0M74.525 223.06a1.067 1.067 0 1 0-2.134 0 1.067 1.067 0 0 0 2.134 0m12.981 17.488a1.067 1.067 0 1 0-2.134 0 1.067 1.067 0 0 0 2.134 0M67.09 192.49a1.067 1.067 0 1 0-2.134 0 1.067 1.067 0 0 0 2.134 0m-13.408 9.426a1.067 1.067 0 1 0-2.135 0 1.067 1.067 0 0 0 2.135 0m38.885 3.202a1.067 1.067 0 1 0-2.133 0 1.067 1.067 0 0 0 2.133 0m22.068-5.605a1.067 1.067 0 1 0-2.134 0 1.067 1.067 0 0 0 2.134 0m-1.068 30.381a1.067 1.067 0 1 0-2.135 0 1.067 1.067 0 0 0 2.135 0m12.829-2.238a1.067 1.067 0 1 0-2.135 0 1.067 1.067 0 0 0 2.135 0m-25.628-36.234a1.067 1.067 0 1 0-2.134.001 1.067 1.067 0 0 0 2.134 0M91.5 172.437a1.067 1.067 0 1 0-2.135 0 1.067 1.067 0 0 0 2.135 0m-16.384-3.038a1.067 1.067 0 1 0-2.133 0 1.067 1.067 0 0 0 2.133 0m45.062 16.195a1.067 1.067 0 1 0-2.135 0 1.067 1.067 0 0 0 2.135 0m-14.748-8.093a1.067 1.067 0 1 0-2.134 0 1.067 1.067 0 0 0 2.134 0m-22.194-23.834a1.067 1.067 0 1 0-2.133 0 1.067 1.067 0 0 0 2.133 0m16.465 5.558a1.067 1.067 0 1 0-2.133 0 1.067 1.067 0 0 0 2.133 0m15.861 6.288a1.067 1.067 0 1 0-2.133 0 1.067 1.067 0 0 0 2.133 0m-7.157-18.362a1.067 1.067 0 1 0-2.133 0 1.067 1.067 0 0 0 2.133 0" fill="#6097b2"/><path d="M107.238 90.944H89.707c-1.143 3.264.966 6.54.61 9.415-.61 4.863 2.22 2.176 2.22 2.176.5 5.23 7.85 6.218 7.773 3.886-.122-3.43.544-5.55 1.52-6.972 1.977-2.854 5.219-2.832 5.774-4.874.056-.2.1-.4.134-.578.544-2.553-.5-3.053-.5-3.053" fill="#164353"/><path d="M107.737 93.998c-3.63-.845-12.001.254-12.334 2.364-.323 2.044 4.185 2.999 6.427 3.087 1.978-2.854 5.22-2.832 5.775-4.875.054-.198.1-.398.132-.576" fill="#205260"/><path d="M35.171 226.74c-1.865 1.699-4.896-1.11-4.896-1.11s1.632-2.421.577-3.398c-1.055-.977-2.276 1.255-4.352.278a4.003 4.003 0 0 1-.51-.29c-1.622-.965-3.309-2.996-4.675-4.54a34.59 34.59 0 0 0-.788-.855c-1.588-1.665-5.685-2.642-6.45 1.799-.767 4.44 4.23 9.648 9.714 14.433 5.485 4.785 9.026 1.943 9.026 1.943s1.244-2.01 1.244-3.264c0-1.243 1.11-1.865 1.732-3.053.621-1.177-.622-1.943-.622-1.943" fill="#164353"/><path d="M25.99 222.22c-1.622-.965-3.31-2.997-4.675-4.54-2.054-.488-3.897-.344-4.186 1.588-.699 4.663 8.605 10.592 7.861 7.316-.378-1.643.266-3.208 1-4.363" fill="#205260"/><path d="M350.621 98.525c-.865.454-1.66 1.452-2.377 2.714 0 .001-.616 3.733 0 7.654.617 3.922-1.09 7.124-6.642 8.327-5.397 1.17-8.599-1.43-7.353-12.28l.001-.005c-.82-4.507-.99-9.654.881-13.99h16.613s2.62 5.615-1.123 7.58" fill="#cfd8dc"/><path d="M365.195 157.005s0-10.825-6.106-21.928c-6.22-11.305-13.906-26.822-13.906-26.822s-5.122-4.997-8.376 3.28c0 0 2.297 28.816 7.57 39.364 5.274 10.547 20.818 6.106 20.818 6.106m79.661 35.25s9.895-41.61 16.189-52.586c0 0-1.45-4.592-8.264-5.98 0 0-21.526 31.642-22.913 44.965-1.388 13.324 14.988 13.601 14.988 13.601" fill="#ff8b66"/><path d="M449.64 182.474c-2.63-6.34-22.96-6.684-22.96-6.684l-1.553 2.287-.411.6-3.176 4.685s-33.685 33.04-40.246 30.266h-.011a3.164 3.164 0 0 1-.556-.322c-4.507-3.22-4.93-20.862-10.258-50.472-.511-2.81-1.643-6.085-2.498-8.35-.1-.244-.19-.477-.278-.7a66.8 66.8 0 0 0-.833-2.053c-20.562-8.327-27.345 8.127-27.345 8.127s.244.477.599 1.244c.078.166.167.355.256.555 1.077 2.376 2.797 6.495 2.775 8.67-.022 2.388-.044 4.686-.055 6.896 0 .199 0 .388-.011.577a1427.07 1427.07 0 0 0 .022 18.674v.566c.022 2.343.055 4.53.1 6.573v.578c.177 9.359.477 15.61.799 19.773.01.189.034.389.045.567.566 7.005 1.165 7.694 1.165 7.694l-4.12 28.633h44.944s6.75-6.761 15.51-15.688c.189-.178.367-.355.545-.544 3.175-3.231 6.606-6.74 10.048-10.303.144-.144.277-.278.399-.411l4.053-4.185c.166-.167.322-.345.488-.511a994.084 994.084 0 0 0 12.624-13.312c.133-.134.255-.267.377-.4 5.119-5.54 9.016-9.97 10.359-12.035 3.564-5.451 6.339-12.546 7.872-16.931v-.012c.077-.2.144-.377.21-.566.722-2.132 1.122-3.486 1.122-3.486" fill="#8b383e"/><path d="M351.938 227.939c-1.832-2.165-4.497-3.497-7.938-3.975.011.189.033.389.044.567 3.242.466 5.751 1.732 7.472 3.774 3.087 3.642 2.587 8.56 2.576 8.605l.555.067c.022-.211.533-5.208-2.709-9.038m50.151 16.687c-.178-.011-.344-.022-.522-.022-4.996 0-10.214 5.462-10.481 5.74l.4.389c.067-.078 5.263-5.52 10.059-5.563.189-.178.366-.355.544-.544m-34.119-90.142c-.1-.244-.189-.477-.278-.699-3.33-1.222-6.384-1.72-9.17-1.72-8.882 0-15.033 5.14-18.408 9.036.077.167.166.355.255.555 4.32-5.063 13.545-12.535 27.601-7.172m12.069 69.458a46.675 46.675 0 0 0 1.243-10.314 3.193 3.193 0 0 1-.555-.322c-.022 16.765-9.726 29.843-9.836 29.988l.444.333c.088-.111 5.84-7.883 8.56-19.108 1.132.744 1.898 1.81 2.22 3.187 1.399 5.884-4.963 15.499-5.018 15.599l.455.31c.267-.41 6.55-9.914 5.107-16.031-.377-1.6-1.265-2.81-2.62-3.642m50.039-8.438a92.25 92.25 0 0 0-3.353-3.464l-.3-.3-.144.4c-2.176 5.696-16.165 18.042-16.31 18.164l-.166.155 2.331 3.864c.144-.145.278-.278.4-.411l-1.954-3.242c2.72-.944 4.652-1.11 6.006-.944.167-.166.322-.344.49-.51a8.631 8.631 0 0 0-1.456-.123c-1.254 0-2.686.256-4.296.744 3.175-2.864 13.045-12.013 15.31-17.11a99.41 99.41 0 0 1 3.064 3.177c.134-.134.256-.267.378-.4m-76.763-38.182l-.222-.044c-.211-.056-2.731-.578-5.629-.578-1.455 0-2.987.133-4.374.522 0 .2 0 .39-.012.577 3.664-1.054 8.56-.244 9.671-.033l-.933 23.104c-.522-1.265-1.554-2.997-3.486-3.952-.922-.466-1.954-.688-3.087-.688a9.88 9.88 0 0 0-2.142.244v.566c1.92-.444 3.586-.322 4.974.378 2.353 1.165 3.286 3.663 3.575 4.652-1.855-.278-5.596.666-8.449 1.543v.577c3.075-.932 7.238-2.009 8.737-1.488l.356.123zm95.205 8.638c-3.232-3.186-9.849-8.061-20.03-8.061-1.077 0-2.198.056-3.364.178l-.41.6c12.378-1.421 20.14 4.385 23.592 7.849.078-.2.144-.377.211-.566" fill="#662c33"/><path d="M394.339 382.595s-1.235 2.844-6.453 2.845c-4.021 0-5.56-2.221-5.56-2.221-2.405-7.031-4.991-33.955-5.917-34.913-.47-.486-30.295-20.574-30.295-20.574 16.186-.303 26.285-20.254 26.285-20.254.523 6.556 18.803 32.536 18.999 34.852.37 4.37 8.103 23.889 2.94 40.265M342.559 241.82s-.15-5.617 1.667-5.987c1.817-.37 16.62-4.745 33.644 2.993 17.024 7.739 19.985 13.476 14.989 17.732-4.996 4.256-50.3-14.738-50.3-14.738" fill="#ce364c"/><path d="M335.738 323.845s-15.489 1.835-24.37-2.01c0 0-2.478-10.991 9.724-35.59 12.202-24.6 9.372-40.091 23.134-45.923 12.2-5.171 48.17 10.215 49.3 15.319 2.844 12.846-19.152 35.39-20.54 48.455-1.388 13.063-14.156 32.704-37.248 19.749" fill="#f24052"/><path d="M311.367 321.836c-10.825-3.844-23.003-15.998-23.02-21.856-.018-5.86 10.157-8.117 10.157-8.117l16.68 8.117s4.772 3.33 1.734 13.04c-3.037 9.71-5.551 8.816-5.551 8.816" fill="#ce364c"/><path d="M355.845 311.004c-3.234 0-7.246 1.165-9.739 2.94-1.373.98-2.193 2.085-2.37 3.195-.61 3.845 3.133 5.8 3.293 5.88l.504-.987c-.13-.067-3.183-1.677-2.7-4.718.128-.81.792-1.662 1.917-2.464 2.791-1.99 7.618-3.157 10.761-2.603 1.416.25 2.343.76 2.754 1.514.503.922.074 1.967.07 1.977l1.02.439c.027-.062.647-1.532-.107-2.933-.578-1.074-1.77-1.777-3.544-2.09a10.803 10.803 0 0 0-1.859-.15m-13.727-11.714c-2.395 0-6.372.998-6.93 4.93-.283 2.002-.1 3.67.06 5.142.238 2.168.425 3.881-.838 5.933-2.086 3.387-4.925 3.615-5.046 3.623l.067 1.108c.142-.008 3.52-.247 5.925-4.149 1.462-2.377 1.236-4.446.996-6.636-.161-1.475-.328-3-.064-4.865.602-4.242 6.01-3.977 6.239-3.965l.066-1.108a7.948 7.948 0 0 0-.475-.014" fill="#cfd8dc"/><path d="M345.488 319.215s8.188 5.577 6.245 11.614c-1.943 6.037-28.311 5.62-35.112-1.596-6.8-7.217 14.71-12.007 14.71-12.007 1.667 3.356 12.307 3.726 14.157 1.99" fill="#ce364c"/><path d="M330.766 320.16c-3.885 1.319-6.189 4.123-5.356 7.362.833 3.238 17.536 3.324 20.703.737 3.168-2.588-1.294-12.87-15.347-8.1" fill="#a02e44"/><path d="M328.918 329.261s3.437-5.872 1.849-9.101c0 0 11.792-4.071 11.792 2.527 0 0-2.223 4.945-1.386 8.142z" fill="#ef6e4b"/><path d="M324.985 334.39s-5.794 9.279-5.257 18.143c.269 4.432 2.548 6.168 2.548 6.168s-1.84 2.558.132 6.467c0 0 2.729-3.158 12.307-2.161 9.236.96 10.157-5.624 10.157-5.624 6.6-.981 2.148-20.952-2.46-22.993z" fill="#ffb878"/><path d="M322.527 342.958s-3.33 3.323-3.74-.562c-.475-4.501 3.613-6.314 4.412-4.882.799 1.432-.672 5.444-.672 5.444m23.319-.234s3.33 3.323 3.74-.562c.475-4.5-3.613-6.314-4.412-4.882-.799 1.432.672 5.444.672 5.444" fill="#ff8b66"/><path d="M333.836 326.655c-7.39 0-11.56 4.827-11.56 19.302 0 7.467 3.8 12.047 12.075 12.047 8.277 0 11.762-4.58 11.762-12.047 0-15.555-4.645-19.302-12.278-19.302" fill="#ff8b66"/><path d="M343.667 340.795c.13-.743-.518-1.477-1.447-1.638-.93-.162-1.787.309-1.916 1.05-.13.744.518 1.477 1.447 1.639.928.162 1.786-.31 1.916-1.051m-15.198-.405c-.05-.752-.852-1.312-1.792-1.25-.941.06-1.664.72-1.615 1.472.049.752.85 1.313 1.792 1.251.94-.06 1.664-.72 1.615-1.473" fill="#db614d"/><path d="M340.413 348.556a.366.366 0 0 0-.281.072c-1.176.904-2.941.584-2.97.58a.375.375 0 0 0-.43.295.368.368 0 0 0 .296.431c.077.017 2.118.383 3.553-.72a.37.37 0 0 0-.168-.658m-14.143-.051a.368.368 0 0 0-.188.652c1.4 1.147 3.45.843 3.529.829a.37.37 0 0 0 .308-.421.377.377 0 0 0-.421-.31c-.013.006-1.812.263-2.947-.67a.37.37 0 0 0-.28-.08" fill="#ffb878"/><path d="M339.649 344.385c0-.917-.413-1.662-.923-1.66-.51 0-.923.743-.923 1.66 0 .918.413 1.662.923 1.662s.923-.744.923-1.662m-9.868 0c0-.917-.413-1.662-.923-1.66-.51 0-.923.743-.923 1.66 0 .918.413 1.662.923 1.662s.923-.744.923-1.662" fill="#1a4850"/><path d="M324.543 356.401s7.875-2.883 19.164-2.073c0 0 2.407-3 2.115-13.586 0 0 6.61 19.07-12.687 19.07-19.298 0-10.605-18.647-10.605-18.647s-1.577 11.663 2.013 15.236" fill="#ffb878"/><path d="M334.303 339.45l-.553.558 1.462 1.453c-1.418 2.003-1.41 6.64-1.41 6.847l.786-.004c0-.05-.007-5.04 1.439-6.607l.257-.278z" fill="#db614d"/><path d="M329.399 337.034s7.273-.307 10.944.664c0 0 .649-5.288-4.987-5.55-5.957-.278-5.957 4.886-5.957 4.886" fill="#1a4850"/><path d="M360.476 317.04c1.388.258 1.25-3.374 0-2.321-1.249 1.052-1.388 2.063 0 2.321m-16.736-17.599c-.211-1.396-3.597-.074-2.193.761 1.403.835 2.404.635 2.193-.76" fill="#cfd8dc"/><path d="M328.843 291.863s-2.204-5.651-2.078-8.844c.126-3.192 1.17-2.776 1.17-2.776s-1.671-.658-1.988-2.498c-.316-1.84 4.33-3.192 4.649-3.192.32 0 3.599 1.249 3.599 1.249l.687 10.443-2.902 1.823z" fill="#ef6e4b"/><path d="M330.596 292.594s4.012-2.498 5.566-4.025c1.553-1.526.666-13.323 0-13.878-.667-.554-5.782-1.7-6.764-1.057-.98.642.383 4.11.383 4.11s2.568.555 2.198-.416c-.37-.971 0-1.803 0-1.803l1.055.416s-.518 2.637 0 4.58-3.617 3.992-4.117 7.547c-.5 3.555 1.68 4.527 1.68 4.527" fill="#ff8b66"/><path d="M289.013 298.342c-1.285 5.547 4.22 7.51 11.88 6.564 8.882-1.097 27.122-3.421 31.087-13.043 0 0 1.295-3.795-2.056-5.618-9.37-5.095-38.5 1.678-40.911 12.097" fill="#ce364c"/><path d="M316.798 302.017s-10.585 4.397-15.86 4.843c-5.273.445 7.293-4.163 15.86-4.843" fill="#a02e44"/><path d="M396.149 397.32c-.8-.91-2.121-4.453-2.121-4.453-.555-2.976-.877-4.619-1.92-5.984-1.033-1.366-.49-3.775-.49-3.775s-4.04-2.077-7.438.488c0 0 .356 2.387 0 3.065-.7 1.354-2.942 2.076-3.708 4.807-.766 2.742-3.064 5.795-3.064 5.795s.655 1.422 1.854.556c1.21-.878 1.976-3.065 2.63-3.287.135-.044.268-.078.4-.089 0 0 .012 0 .034-.01.5-.067 1.01.044 1.322.343a.22.22 0 0 1 .077.067c1.099 1.277 1.355 5.03 1.31 6.706-.066 2.332.023 5.551 1.444 5.007 1.42-.544.122-1.843 1.22-6.983l.534-.067c.1-.366 1.077 3.12 1.31 6.395.167 2.254 1.643 1.421 1.965.711.333-.71-.166-2.953-.266-4.586a307.85 307.85 0 0 0-.222-2.864l.62-.344c2.244 3.908 1.478 5.53 2.788 5.607 1.299.077.833-3.22.133-4.475-.3-.544-.588-1.676-.821-2.786 2.298 2.653 2.043 4.041 3.097 3.874 1.088-.177.11-2.809-.688-3.719" fill="#ff8b66"/><path d="M386.223 391.202c-.777 2.143-3.553 3.12-3.897 3.23.5-.066 1.01.045 1.321.345 2.72-1.221 2.576-3.575 2.576-3.575" fill="#ef6e4b"/><path d="M337.993 107.23s-1.536 3.134-.167 4.481c1.37 1.347 2.982-1.15 5.322-.596 2.34.555 2.882 2.218 3.49-.048.608-2.265-.132-9.389-8.644-3.838" fill="#cfd8dc"/><path d="M346.8 107.368s-6.284-2.226-9.541 0l.827-2.72s6.83-.724 7.772.998zm-.085-3.379s-5.753.797-8.53-.63v-1.35s7.503 1.752 9.927 0z" fill="#adbec4"/><path d="M337.91 99.209s1.116 2.719 4.616 2.914c3.5.196 5.862-1.732 5.862-1.732s-5.551 2.287-10.478-1.182" fill="#adbec4"/><path d="M486.002 136.987c-11.047-14.744-26.08-17.575-26.08-17.575-4.363 3.486-4.474 7.616-4.474 7.616s-4.208 3.753-4.763 5.55c-.555 1.8 3.608 7.218 6.106 6.663 1.72-.378 2.72-1.754 3.176-2.565-2.065 4.652-.411 6.273 2.52 5.873 3.053-.41.166-1.132 2.354-3.586.155-.177.333-.322.52-.455.4-.278.878-.466 1.422-.566a6.537 6.537 0 0 1 1.566-.078c.289.01.588.044.888.089.566.089 1.144.233 1.743.422.922.288 1.877.699 2.809 1.21 3.82 2.087 5.429 2.798 8.338 2.054 2.898-.733 2.854-2.931 2.854-2.931z" fill="#cfd8dc"/><path d="M486.002 136.987c-11.047-14.744-26.08-17.575-26.08-17.575 7.672 3.297 14.722 7.616 19.54 12.934 4.808 5.318 6.54 4.64 6.54 4.64m-20.64 1.522c.4-.278.877-.466 1.421-.566-2.92-.59-3.131-3.198-3.131-3.198l-1.243.4c.266 3.13 2.742 3.353 2.953 3.364" fill="#adbec4"/><path d="M467.327 134.433l-1.299-.045c-.489 1.844.144 2.943.755 3.553a6.476 6.476 0 0 1 1.565-.077c-1.543-1.52-1.02-3.43-1.02-3.43m3.208.71l-1.288-.167c-.5 1.31-.355 2.288-.011 2.976a12.03 12.03 0 0 1 1.743.422c-1.066-1.588-.444-3.231-.444-3.231" fill="#adbec4"/><path d="M346.914 272.054s2.851-15.386-2.915-21.517c-5.765-6.132-1.95-1.093-.23 6.812 1.718 7.905.408 16.231 3.145 14.705m26.608 6.867s9.088-2.986 13.842-11.38c0 0-6.348 13.666-13.842 11.38" fill="#ce364c"/><path d="M137.473 393.233c1.211-.019 4.723-1.417 4.723-1.417 2.578-1.586 4.012-2.451 5.725-2.594 1.705-.152 2.405-3.082 2.405-3.082s6.724-1.471 7.104 2.769c0 0-3.759 5.321-4.022 6.039-.535 1.428.436 3.574-1.074 5.976-1.518 2.408-2.238 6.162-2.238 6.162s-1.493.468-1.656-1.002c-.163-1.486.944-3.522.67-4.156a1.697 1.697 0 0 0-.204-.356s-.007-.008-.014-.032c-.286-.415-.71-.719-1.142-.748a.194.194 0 0 0-.1-.013c-1.685.042-4.638 2.372-5.85 3.531-1.684 1.614-4.13 3.71-4.68 2.292-.552-1.419 1.283-1.328 4.355-5.594l-.309-.44c.205-.32-3.035 1.297-5.619 3.323-1.782 1.389-2.156-.264-1.846-.98.303-.724 2.301-1.859 3.578-2.881.85-.665 1.741-1.352 2.272-1.758l-.163-.692c-4.402.962-5.089 2.618-6.026 1.699-.93-.911 1.827-2.779 3.227-3.103.604-.143 1.637-.689 2.617-1.262-3.51.078-4.367 1.199-4.952.306-.598-.926 2.008-1.968 3.22-1.987" fill="#ff8b66"/><path d="M148.67 396.482c-1.065 2.014.074 4.728.223 5.057-.286-.415-.712-.719-1.142-.748-.921-2.836.92-4.309.92-4.309" fill="#ef6e4b"/><path d="M335.329 393.233c-1.211-.019-4.723-1.417-4.723-1.417-2.578-1.586-4.012-2.451-5.725-2.594-1.705-.152-2.405-3.082-2.405-3.082s-6.724-1.471-7.104 2.769c0 0 3.759 5.321 4.022 6.039.535 1.428-.436 3.574 1.074 5.976 1.518 2.408 2.238 6.162 2.238 6.162s1.493.468 1.656-1.002c.163-1.486-.944-3.522-.67-4.156.058-.129.122-.25.204-.356 0 0 .007-.008.014-.032.286-.415.71-.719 1.142-.748a.194.194 0 0 1 .1-.013c1.686.042 4.638 2.372 5.85 3.531 1.684 1.614 4.13 3.71 4.68 2.292.552-1.419-1.283-1.328-4.355-5.594l.309-.44c-.205-.32 3.035 1.297 5.619 3.323 1.782 1.389 2.156-.264 1.846-.98-.303-.724-2.301-1.859-3.578-2.881-.85-.665-1.741-1.352-2.272-1.758l.163-.692c4.402.962 5.089 2.618 6.026 1.699.93-.911-1.827-2.779-3.227-3.103-.604-.143-1.637-.689-2.617-1.262 3.51.078 4.367 1.199 4.952.306.598-.926-2.008-1.968-3.22-1.987" fill="#ff8b66"/><path d="M324.131 396.482c1.066 2.014-.073 4.728-.222 5.057.286-.415.712-.719 1.142-.748.921-2.836-.92-4.309-.92-4.309" fill="#ef6e4b"/><path d="M276.23 189.387l-12.918 79.991-25.868-2.889-25.87 2.889-12.917-79.991-6.205-77.581s1.972-6.428 14.877-1.987c0 0 9.574 71.958 11.054 73.542 1.48 1.585 16.683 48.586 16.683 48.586h4.755s15.203-47.001 16.683-48.586c1.48-1.584 11.055-73.542 11.055-73.542 12.904-4.441 14.877 1.987 14.877 1.987z" fill="#0e3944"/><path d="M229.294 346.84c1.634-1.59 9.673-4.458 13.918 0l2.878-2.826s-3.282-7.718-9.04-7.988c-5.76-.27-9.924 6.867-9.924 6.867zm22.767.872c9.622 4.143 40.71 15.154 40.71 15.154s20.896 26.182 25.158 30.068c0 0 4.627-.833 5.98-6.592 0 0-13.457-28.814-20.77-37.063-7.316-8.25-44.364-26.09-44.364-26.09z" fill="#0c476b"/><path d="M218.383 348.306c2.863 1.81 17.234-7.805 17.234-7.805s18.684 9.922 23.069 8c0 0 3.951-5.287 5.539-18.881 1.588-13.594 1.693-69.536 1.693-69.536s-12.562-4.443-29.553-4.443c-19.37 0-29.791 5.554-29.791 5.554s-3.457 77.456 11.809 87.11" fill="#ffb878"/><path d="M230.053 349.759s2.07-6.51 0-9.017c0 0 2.15-4.51 6.012-4.708 4.462-.231 6.011 4.708 6.011 4.708s-2.36 6.287 0 8.496z" fill="#ef6e4b"/><path d="M224.894 356.166s-4.355 8.382-3.493 17.34c.862 8.957 14.36 11.01 23.455 6.61 0 0-2.7 2.64-1.644 3.374 1.057.733 2.878-3.961 2.878-3.961s2.873.88 3.313 0c.44-.88-2.943-1.362-2.943-1.362s5.87-3.254.386-20.578z" fill="#8b383e"/><path d="M224.24 361.474s-3.248 3.24-3.648-.548c-.463-4.388 3.523-6.156 4.302-4.76.78 1.396-.655 5.308-.655 5.308m22.738-.229s3.247 3.241 3.647-.547c.463-4.389-3.523-6.157-4.302-4.76-.779 1.395.655 5.307.655 5.307" fill="#ff8b66"/><path d="M235.266 345.578c-7.205 0-11.27 4.706-11.27 18.822 0 7.28 3.703 11.746 11.773 11.746s11.47-4.466 11.47-11.746c0-15.168-4.53-18.822-11.973-18.822" fill="#ff8b66"/><path d="M244.852 359.365c.127-.724-.505-1.44-1.41-1.597-.907-.158-1.743.3-1.869 1.025-.127.724.505 1.439 1.411 1.597.905.158 1.742-.301 1.868-1.025m-14.819-.395c-.048-.734-.83-1.28-1.748-1.22-.917.06-1.622.703-1.574 1.436.048.734.83 1.28 1.748 1.22.917-.059 1.622-.703 1.574-1.436" fill="#db614d"/><path d="M241.557 366.689a.358.358 0 0 0-.26.11c-.999 1.048-2.747 1.003-2.773 1.003a.366.366 0 0 0-.371.349.358.358 0 0 0 .348.37c.077.006 2.098.054 3.316-1.224a.36.36 0 0 0-.26-.608m-13.567 0a.361.361 0 0 0-.261.608c1.219 1.278 3.238 1.229 3.317 1.225a.358.358 0 0 0 .348-.37.368.368 0 0 0-.37-.35c-.014.003-1.785.036-2.772-1.002a.362.362 0 0 0-.261-.111" fill="#8b383e"/><path d="M240.935 362.866c0-.895-.403-1.62-.9-1.62s-.9.725-.9 1.62c0 .895.403 1.62.9 1.62s.9-.725.9-1.62m-9.622 0c0-.895-.403-1.62-.9-1.62s-.9.725-.9 1.62c0 .895.403 1.62.9 1.62s.9-.725.9-1.62m0-9.573s6.354-.818 9.622.75c0 0-1.848-4.325-5.318-3.937-3.47.388-4.304 3.187-4.304 3.187" fill="#1a4850"/><path d="M246.488 359.646s-.225 7.836-3.276 13.86c0 0-5.378-2.486-6.562-1.899-1.184.587 1.128 1.898 1.128 1.898s-8.874-2.925-9.407-2.339c-.533.587 2.941 2.34 2.941 2.34l-5.528-1.899s-1.704-7.05-.999-11.96c0 0-2.375 4.098-2.668 6.93-.294 2.83.95 10.898 9.277 11.484 8.327.587 13.003-1.302 15.066-5.125 2.063-3.823 1.807-8.527.028-13.29" fill="#8b383e"/><path d="M236.522 355.557c-.7 0-1.411.18-1.626.24l.204.737c.756-.208 1.942-.332 2.2-.027.09.106.054.352-.098.675-1.042 2.214-1.258 7.82-1.267 8.059l.765.028c.002-.057.219-5.688 1.195-7.761.297-.632.294-1.135-.01-1.494-.295-.351-.825-.457-1.363-.457" fill="#db614d"/><path d="M244.494 344.778s13.04-40.48 14.282-73.417c0 0 4.707-1.296 10.006 5.921 5.299 7.217 2.147 64.38-8.005 73.897 0 0-4.606 1.05-16.283-6.4" fill="#105e99"/><path d="M246.62 337.699s2.333 5.423 1.296 9.142c-1.037 3.719-4.704 0-4.704 0s1.481-6.09 3.407-9.142m-26.174 10.013c-9.622 4.143-40.709 15.154-40.709 15.154s-20.95 26.946-25.212 30.832c0 0-5.274-2.984-5.632-9.16 0 0 13.162-27.01 20.476-35.26 7.315-8.248 44.363-26.09 44.363-26.09z" fill="#0c476b"/><path d="M228.013 344.778s-13.04-40.48-14.282-73.417c0 0-4.707-1.296-10.006 5.921-5.299 7.217-2.147 64.38 8.005 73.897 0 0 4.606 1.05 16.283-6.4" fill="#105e99"/><path d="M225.887 337.699s-2.334 5.423-1.297 9.142c1.037 3.719 4.704 0 4.704 0s-1.48-6.09-3.407-9.142" fill="#0c476b"/><path d="M293.938 90.944h-25.89c-1.81 10.292 1.076 20.595 1.076 20.595l11.835 2.032c1.077-6.506 2.376-9.07 4.175-10.392h.011c1.31-.955 2.875-1.266 4.83-1.943 2.231-.777 3.408-2.187 3.996-3.719 1.166-3.042-.033-6.573-.033-6.573" fill="#662c33"/><path d="M293.972 97.517c-6.384-.799-20.407-2.165-19.552 1.532.71 3.087 6.629 3.92 10.714 4.13h.01c1.312-.955 2.877-1.266 4.83-1.943 2.233-.777 3.41-2.187 3.998-3.719" fill="#8b383e"/><path d="M207.227 90.944h-25.89s-.822 2.42-.444 4.985c.31 2.087 1.42 4.275 4.407 5.307 2.243.777 3.964 1.066 5.374 2.387 1.532 1.443 2.676 4.108 3.642 9.948l11.835-2.032s2.876-10.303 1.077-20.595" fill="#662c33"/><path d="M180.892 95.93c.311 2.086 1.421 4.274 4.408 5.306 2.242.777 3.963 1.066 5.373 2.387 3.276-1.01 7.861-2.864 9.282-5.673 1.976-3.853-13.156-3.242-19.063-2.02" fill="#8b383e"/><path d="M393.107 92.799c0-1.089-.111-1.855-.111-1.855h-31.454c0 .623.012 1.244.045 1.855.355 8.226 2.953 15.365 2.953 15.365l7.86 3.376c.678-4.053 2.42-6.64 4.608-8.328a11.207 11.207 0 0 1 1.799-1.154 15.098 15.098 0 0 1 2.886-1.176c2.776-.844 5.585-1.022 7.55-1.322 3.353-.522 3.864-4.397 3.864-6.762" fill="#164353"/><path d="M393.107 92.799c0-1.089-.111-1.855-.111-1.855h-31.454c0 .623.012 1.244.045 1.855zm-14.3 9.259l-4.363-1.399-.922 1.599 3.486.955a11.182 11.182 0 0 1 1.799-1.155m2.886-1.177l-2.942-1.954-1.81.711 2.742 1.987c.656-.3 1.333-.544 2.01-.744" fill="#225866"/><path d="M272.933 92.799c-.078-1.067-.355-1.855-.355-1.855h-20.951a9.454 9.454 0 0 0-.589 1.855c-2.065 10.024 11.857 22.293 11.857 22.293l4.42-5.895s-.512-9.438 3.23-11.403c2.243-1.176 2.531-3.396 2.387-4.995" fill="#164353"/><path d="M251.038 92.799h21.894a7.855 7.855 0 0 0-.355-1.855h-20.95a9.391 9.391 0 0 0-.589 1.855m18.55 5.747s-8.827 2.012-12.851-.593v1.457s7.425 3.608 12.851-.864" fill="#225866"/><path d="M267.84 100.785s-5.637 2.577-11.104 0l.625 1.47s6.53 2.47 10.478-1.47" fill="#225866"/><path d="M383.614 181.93c.01-8.427-7.472-77.13-7.472-77.13-7.483-.743-13.48.756-13.48.756-2.052 34.817-2.252 64.76-2.252 64.76l-35.862 26.88-.088.067s-.134-.611-.378-1.7c-1.776-7.882-9.293-40.901-12.424-48.462-3.564-8.615-42.531-44.846-42.531-44.846-7.24 1-13.381 6.243-13.381 6.243 13.989 23.204 33.063 46.475 33.063 46.475 1.488 8.36 2.554 26.957 3.187 40.857l.033.644a1216.3 1216.3 0 0 1 .633 16.52l-6.573 13.479 41.757 15.344 9.359-11.98s2.143-1.987 5.518-5.162c.156-.144.31-.29.467-.433 12.534-11.824 40.424-38.537 40.424-42.312" fill="#8bbddb"/><path d="M291.996 195.83l.033.644c8.793 4.774 7.317 12.39 7.295 12.468l.544.111c.022-.078 1.598-8.26-7.872-13.223m31.908 6.75c.3-1.665.522-3.464.644-5.385l-.089.068s-.133-.611-.377-1.7c-.389 13.058-5.774 20.774-5.84 20.863l.455.322c.055-.067 3.453-4.974 5.096-13.534 6.351 5.64.133 17.198.067 17.309l.488.266c.067-.122 6.651-12.357-.444-18.208m19.286 21.661c-.012-.011-.034-.011-.045-.022a2.404 2.404 0 0 0-.866-.144c-3.076 0-8.238 4.307-8.483 4.518l.367.422c1.676-1.421 6.35-4.83 8.56-4.341l.466-.433" fill="#6097b2"/><path d="M289.013 298.342s12.702 2.044 19.066-2.013c6.364-4.057 14.72-14.646 14.72-14.646s-9.92-1.31-11.043-8.05c0 0-7.207 17.163-22.743 24.709" fill="#adbec4"/><path d="M269.905 291.717c-5.373-2.905-14.354-13.81-14.76-20.516-.396-6.542 4.45-12.558 7.716-17.672 10.193-15.96 20.925-30.06 25.486-48.778.029-.12 23.315-9.36 50.643 23.49 0 0-15.442 20.778-20.777 38.467-2.171 7.2-4.381 14.849-8.552 21.195-4.594 6.99-12.463 11.103-20.648 10.439-6.926-.562-13.814-3.763-19.108-6.625" fill="#cfd8dc"/><path d="M267.65 298.411s3.436-5.872 1.85-9.1c0 0 11.791-4.073 11.791 2.526 0 0-2.222 4.945-1.385 8.142zm26.204-40.209s-6.56-1.863-8.215-4.185c-1.655-2.323-3.128-7.531-3.128-7.531h11.343l2.134 3.924 2.497 5.23z" fill="#ef6e4b"/><path d="M283.01 304.959s4.605 1.93 1.626 15.784c-1.975 9.178-4.818 10.546-6.655 10.626 0 0-2.248 3.387-10.046 1.766-5.34-1.111-9.6-4.354-11.476-10.355-1.958-6.264 1.958-19.691 7.115-21.028z" fill="#164353"/><path d="M284.1 314.32s2.901 4.04 3.997.057c1.27-4.613-2.682-7.208-3.76-5.852-1.08 1.356-.238 5.794-.238 5.794m-24.284-4.257s-4.046 2.893-3.805-1.23c.28-4.776 4.856-5.964 5.443-4.333.587 1.63-1.638 5.563-1.638 5.563" fill="#ff8b66"/><path d="M275.109 295.368c7.708 1.272 11.227 7.024 8.736 22.124-1.285 7.789-6.036 11.912-14.67 10.488-8.633-1.424-11.48-6.801-10.195-14.591 2.677-16.225 8.166-19.335 16.129-18.021" fill="#ff8b66"/><path d="M262.42 308.425c-.007-.797.795-1.451 1.792-1.46.997-.01 1.81.63 1.818 1.427.007.797-.795 1.45-1.792 1.459-.996.01-1.81-.63-1.818-1.426m15.924 2.193c.18-.777 1.114-1.222 2.085-.997.97.226 1.61 1.04 1.43 1.815-.18.776-1.113 1.223-2.084.997-.971-.226-1.612-1.039-1.431-1.815" fill="#db614d"/><path d="M264.59 316.836a.39.39 0 0 0-.323.61c1.078 1.58 3.24 1.884 3.333 1.897a.39.39 0 0 0 .103-.774c-.02-.003-1.913-.273-2.79-1.562a.39.39 0 0 0-.323-.171m14.512 2.394a.389.389 0 0 0-.235.08c-1.248.941-3.123.585-3.14.582a.385.385 0 0 0-.46.307.389.389 0 0 0 .307.458c.09.018 2.236.427 3.763-.725a.39.39 0 0 0-.235-.702m-13.108-6.368c.158-.958.717-1.663 1.249-1.575.532.088.835.935.677 1.893-.158.957-.717 1.66-1.25 1.574-.531-.088-.834-.935-.676-1.892m10.293 1.698c.158-.957.717-1.662 1.249-1.574.532.088.835.935.677 1.892-.158.957-.717 1.662-1.249 1.574-.532-.088-.835-.935-.677-1.892m2.89-8.691s-6.686-1.793-10.395-1.081c0 0 2.563-3.23 6.223-2.298 3.66.932 4.172 3.379 4.172 3.379" fill="#1a4850"/><path d="M279.493 324.5s-8.7-6.3-19.62-6.78l.309-9.72s-10.178 18.753 9.952 22.074c20.13 3.322 14.27-17.626 14.27-17.626s-.622 9.035-4.911 12.051" fill="#0e3944"/><path d="M272.377 308.48l-.055.84c.012.002 1.173.092 1.474.81.125.297-.37 1.24-.806 2.073-.606 1.157-1.36 2.596-1.681 4.195l.826.166c.296-1.481 1.019-2.861 1.6-3.97.648-1.235 1.115-2.127.838-2.79-.505-1.2-2.127-1.32-2.196-1.323" fill="#db614d"/><path d="M284.213 324.476c-14.633 6.35-28.445-6.817-28.445-6.817s-1.61 10.67 1.21 13.168a16.945 16.945 0 0 0 2.343 1.743c6.462 4.074 15.055 3.997 18.997 2.598.81-.29 1.432-.633 1.787-1 2.332-2.42 4.108-9.693 4.108-9.693" fill="#ce364c"/><path d="M282.436 326.851s-12.29 2.431-23.748-5.152c0 0-.733 6.884.633 10.87 6.461 4.074 15.055 3.997 18.996 2.598 2.298-2.62 4.12-8.315 4.12-8.315" fill="#cfd8dc"/><path d="M256.978 318.913s1.949 8.275 4.574 10.606c4.366 3.877 16.636 5.21 23.085 2.877 6.449-2.33 0-9.377 0-9.377s-10.278 7.363-27.66-4.106" fill="#a02e44"/><path d="M275.956 263.926s5.023-7.78 13.577-12.357c0 0 10.701 9.288 24.576 8.453 0 0-11.5-20.749-21.375-23.046-5.189-1.208-23.953 11.218-23.953 11.218s3.746 13.205 7.175 15.732" fill="#ff8b66"/><path d="M257.459 278.031c4.597 7.483 15.2-3.579 18.81-11.48 3.609-7.9 6.243-9.575 6.243-9.575s-10.596-4.427-10.52-12.368c0 0-24.563 17.094-14.533 33.423" fill="#adbec4"/><path d="M289.533 254.987s6.454 6.332 27.676 14.596l-2.74 8.62c2.434 3.203 6.91 3.203 6.91 3.203s10.873-15.354 9-19.94c-1.168-2.864-23.847-5.87-40.846-6.479" fill="#ef6e4b"/><path d="M312.774 267.515s.167.907.952 2.014c.784 1.107.571 3.123.853 3.747.281.625 1.95 3.177 3.058 3.674 1.11.496 2.562 1.308 2.871-.098.31-1.406-1.985-1.008-3.015-3.031 0 0 2.254.729 4.042.306 1.788-.423 2.294-2.057.085-2.003-1.76.043-4.03-1.213-4.03-1.213s2.295-.345 1.925-1.404c-.512-1.463-3.313-.562-6.74-1.992" fill="#ff8b66"/><path d="M155.819 238.608c1.897-4.857 9.668-13.184 9.668-13.184s18.984 11.38 27.742 6.592c8.758-4.788 15.718-7.71 21.398-5.624 5.679 2.085-18.676 46.38-18.676 46.38l-31.579 12.05s-.689-7.987-4.297-9.406c-3.608-1.419-7.455-14.603-7.197-17.1.258-2.499 2.941-19.708 2.941-19.708" fill="#3e6575"/><path d="M191.35 225.135s-8.144-15.962-24.955-36.404c0 0-1.723-24.31-46.179-62.556l-4.654 3.662s26.475 41.47 31.77 54.186c5.296 12.715-2.927 24.365 21.435 56.525z" fill="#ef6e4b"/><path d="M165.432 253.38c-7.01-13.427-9.362-30.593-9.362-30.593l-3.192-8.053s11.322-6.106 24.396-8.327l5.244 13.88z" fill="#662c33"/><path d="M201.991 226.392s3.471-17.579 2.9-44.04c0 0 13.677-20.17 2.39-77.718h-5.922s-4.838 48.962-8.538 62.23c-3.7 13.267-17.368 17.338-18.108 57.678z" fill="#ff8b66"/><path d="M205.462 207.521s-11.136-1.998-30.754-1.077l-.31 2.21-.079.566-2.03 14.3s-1.889 2.331-3.832 6.128c-.233.445-.455.9-.677 1.377-2.642 5.63-4.985 13.812-2.354 22.35l4.141-.189.578-.033 13.856-.633.588-.034 4.552-.21.711-.034 2.953-.133s15.011-13.512 12.335-38.493l.19-3.475.021-.566z" fill="#8b383e"/><path d="M170.145 253.153c-.389-1.144-3.009-9.626-1.688-23.504-.233.444-.455.899-.677 1.377-.988 12.69 1.288 20.606 1.788 22.16.066.189.1.278.1.289l.521-.19c0-.01-.022-.054-.044-.132m35.206-43.578c-3.94-1.01-10.625-1.288-16.976-1.288-5.695 0-11.102.233-13.978.366l-.078.567c4.985-.245 18.11-.755 26.57.166l-.545 8.938c.133 10.425-3.02 19.33-6.062 25.48-7.705 1.4-9.826 7.106-10.28 8.716-.068.255-.1.41-.1.422l.543.088c0-.01.044-.21.144-.544.5-1.665 2.565-6.628 9.371-8.049-2.054 4.008-3.997 6.75-4.819 7.838-.244.333-.399.522-.41.533l.421.356c.023-.023.278-.333.7-.922 2.576-3.497 11.27-16.654 11.047-33.896l.544-8.893c1.477.178 2.798.4 3.886.688z" fill="#662c33"/><path d="M176.984 313.615c-4.419 2.434-36.262-10.054-36.262-10.054s-4.71-8.403-1.775-11.698c2.937-3.295 13.356-1.842 16.548 0 3.192 1.842 11.647 3.236 11.647 3.236z" fill="#8bbddb"/><path d="M205.143 340.124s6.578-2.539 8.984-10.117c2.405-7.578-4.787-26.763-2.3-35.582 2.485-8.82 2.1-25.473-5.665-28.989-7.764-3.516-23.687 2.775-27.105 12.398-3.419 9.622-1.943 46.075 4.628 58.473 6.571 12.398 19.876 6.154 21.458 3.817" fill="#f24052"/><path d="M197.584 307.428c1.735-1.87 6.195 1.463 6.195 1.463s-.09-16.537-4.897-17.805c-4.806-1.268-17.055 13.027-16.55 16.913.503 3.886 11.404 3.577 15.252-.57" fill="#8bbddb"/><path d="M179.057 311.564s4.862-4.128 13.33-6.091c8.47-1.964 13.06 2.018 17.393-3.443 6.5-8.197-4.076-23.308-9.641-31.138-2.075-2.92-6.454-11.017-7.338-18.785 0 0-14.696-4.27-27.37 1.273l-.945 18.029s-7.99 24.297 14.57 40.155" fill="#0e3944"/><path d="M194.25 294.024s6.716 16.003 8.66 17.025c1.946 1.02 6.877-1.431 7.867-3.62.99-2.19 0-6.964 0-6.964s-5.296 6.044-16.526-6.441" fill="#8bbddb"/><path d="M226.413 226.395c-3.053-6.25-10.548-8.049-10.548-8.049s-.566.866-1.52 2.42a9.307 9.307 0 0 0-.311.511c-5.896 9.56-23.915 40.147-23.56 56.057.41 19.007 12.812 29.444 12.812 29.444 6.296-1.499 8.283-3.22 8.283-3.22s2.12-10.814.177-23.826c-1.942-13-5.473-16.443-3.697-17.42 1.766-.966 0-2.909 0-2.909s10.448-14.556 12.402-19.085c1.266-2.954 3.42-7.972 4.763-11.103.089-.222.178-.444.266-.644l.933-2.176" fill="#6097b2"/><path d="M208.266 303.561s-7.48-5.545-3.122-14.017l20.734-21.465c-11.38-12.126-12.508-17.105-20.734-22.696l3.122-4.835s28.81 22.142 28.853 27.531c.018 2.307-17.598 30.215-28.853 35.482" fill="#ff8b66"/><path d="M204.689 245.382s-3.952-.438-6.441-1.06c-2.488-.623-5.806-1.245-5.91-1.763-.104-.519 5.496 0 5.496 0s-4.563-1.875-4.666-2.597c-.104-.722 5.806.523 5.806.523s-3.733-2.282-3.525-2.904c.207-.622 4.805.934 4.805.934s-.855-2.178-1.741-3.215c0 0 .89-.489 2.698 1.518 1.807 2.008 4.693 1.363 6.977 3.144 2.285 1.782-1.42 5.688-3.5 5.42" fill="#ff8b66"/><path d="M183.502 308.9s-5.69-3.676-9.285-12.558c-3.595-8.882-14.936-25.596-17.592-29.915-2.657-4.318-.806-27.82-.806-27.82s-3.33 14.25-4.81 19.8c-1.482 5.552 4.778 19.269 5.72 19.998.94.728 5.751-.605 4.826 4.965-.925 5.57 11.983 29.569 15.43 30.245 0 0 5.52-1.037 6.517-4.714m-17.598-1.201a4.205 4.205 0 0 0-.344-.555c-1.288-1.854-3.686-3.331-3.686-3.331s-4.341-6.084-4.386-6.784c-.044-.6-7.538-6.04-10.87-5.928h-.01c-.455.01-.833.133-1.1.377-1.976 1.865 6.729 17.52 8.649 20.895.123.222.223.389.289.5.045.089.078.144.078.144s-1.532 5.707 4.863 4.64c5.318-.876 6.373-5.106 6.928-7.937.133-.678-.056-1.366-.411-2.021" fill="#6097b2"/><path d="M143.574 301.784c4.393 5.775 19.85 16.975 27.993 20.29l2.036-3.784s-15.733-13.832-19.43-19.75c-3.696-5.916-8.274-8.363-12.65-6.393-4.374 1.97 1.127 8.422 2.05 9.637" fill="#ff8b66"/><path d="M164.372 308.887l-.833-.955-.422-.488-1.376-1.577s-3.464-4.197-3.331-5.884c.1-1.21-6.573-6.629-11.791-8.882-2.121-.922-4.008-1.322-5.107-.689-3.775 2.176-2.931 8.716-.788 13.146 1.865 3.863 10.114 8.85 12.235 10.07.266.166.433.266.488.288l.01.012.789 3.064s2.876 1.732 5.14.666c0 0-4.995-.21-4.174-2.154.844-1.954 7.772-6.55 9.16-6.617" fill="#8bbddb"/><path d="M182.513 324.909c-5.029-2.065-4.308-6.617-8.915-6.617-2.854 0-3.23 3.264-3.23 3.264 1.287 2.787 2.108 7.539 2.286 9.804.19 2.263.944 1.386.944 1.386 0 .211-.01.411-.023.611-.066 1.521-.344 2.631.655 1.976 1.133-.732 1.522-5.04 1.522-5.04.932 6.284-.456 7.216.632 6.661 1.488-.755 1.5-6.306 1.5-6.473 1.198 3.653.876 5.74 1.71 4.908.843-.844-.423-7.55-.922-10.015-.11-.555-.189-.899-.189-.899 3.986 1.954 4.03.433 4.03.433" fill="#ff8b66"/><path d="M178.672 325.375c-.111-.555-.19-.9-.19-.9s-1.842.178-3.185-1.81c0 0 .377 2.666 3.375 2.71m-4.797 2.865c.033.532.255 3.585-.277 4.507 0 .211-.012.41-.023.61 1.155-.244.422-4.474.3-5.118" fill="#ef6e4b"/><path d="M176.996 301.752s3.399 9.212 4.48 11.268c1.082 2.057 6.713 1.705 10.975.91 4.262-.796 5.134-6.502 5.134-6.502s-12.966 6.118-20.59-5.676" fill="#8bbddb"/><path d="M198.882 319.882s-4.072-7.519-4.008-15.857c0 0-6.614-4.495-8.98 1.135 0 0 2.512 7.376 1.298 17.333-.813 6.668 11.69-2.61 11.69-2.61" fill="#ef6e4b"/><path d="M185.894 330.315s-1.21 4.31-3.364 1.28c-2.495-3.51.048-6.922 1.38-6.108 1.33.815 1.984 4.828 1.984 4.828m19.226-11.082s4.313 1.2 2.839-2.212c-1.708-3.954-5.944-3.548-5.938-1.988.006 1.56 3.099 4.2 3.099 4.2" fill="#ff8b66"/><path d="M187.659 311.517c-6.127 3.45-7.331 9.4-.572 21.402 3.486 6.191 8.775 8.214 15.637 4.35 6.862-3.864 7.614-9.289 4.128-15.48-7.263-12.897-12.864-13.836-19.193-10.272" fill="#ff8b66"/><path d="M202.412 318.65c-.24-.675-1.12-.981-1.965-.682-.845.3-1.337 1.09-1.098 1.767.24.676 1.119.982 1.965.683.846-.3 1.337-1.091 1.098-1.767m-12.791 6.76c-.392-.6-1.319-.69-2.07-.2-.752.49-1.043 1.374-.65 1.975.391.601 1.318.691 2.07.2.751-.49 1.042-1.374.65-1.975" fill="#db614d"/><path d="M203.289 326.411a.35.35 0 0 0-.34.265c-.347 1.367-1.863 2.172-1.878 2.18a.353.353 0 0 0-.15.474c.09.172.3.24.475.15.074-.04 1.81-.963 2.233-2.632a.35.35 0 0 0-.34-.437m-8.414 5.986a.35.35 0 0 0-.181.05c-.015.009-1.492.886-2.838.475a.351.351 0 1 0-.205.673c1.648.504 3.336-.503 3.407-.546a.351.351 0 0 0-.183-.652m5.882-8.894c-.429-.76-1.119-1.185-1.54-.946-.424.238-.419 1.047.01 1.808.428.761 1.118 1.185 1.54.947.423-.238.42-1.048-.01-1.809m-8.59 4.607c-.428-.76-1.118-1.184-1.541-.945-.423.238-.418 1.047.01 1.808.429.76 1.119 1.185 1.542.947.422-.238.417-1.048-.011-1.81m-2.977-7.81s3.516-2.683 6.056-2.765c0 0-2.701-2.2-4.642-.773-1.942 1.427-1.413 3.537-1.413 3.537" fill="#1a4850"/><path d="M198.91 325.041s1.613 1.56 2.274 1.011c.66-.549.315-2.469.315-2.469l1.411-.036-1.167.47s.376 1.994-.35 2.407c-1.033.588-2.483-1.383-2.483-1.383m-6.078 3.121s.497 2.188-.315 2.468c-.812.28-2.273-1.011-2.273-1.011l-.764 1.189 1.008-.754s1.51 1.355 2.24.948c1.038-.58.104-2.84.104-2.84" fill="#1a4850"/><path d="M204.351 334.704s-2.195 3.05-5.226.628c-3.03-2.422-9.868-6.298-13.23-5.017-3.365 1.28 7.357 15.61 16.666 11.414 9.308-4.197 8.471-17.856 4.6-22.2-3.873-4.343-2.04-.296-2.04-.296s.257 6.162 1.551 10.245c1.294 4.083-2.32 5.226-2.32 5.226" fill="#f24052"/><path d="M194.033 321.696c-.17 0-.348.023-.53.07l.185.734c.626-.159.934.11 1.082.363.208.358.18.82.014.992-.097.101-.263.091-.495-.03l-.35.672c.771.403 1.231.052 1.393-.119.418-.437.458-1.27.093-1.897-.298-.51-.798-.785-1.392-.785" fill="#db614d"/><path d="M238.903 268.93c-.366-5.386-13.689-22.917-15.91-23.538-.577-.156-1.166-.478-1.72-.855a17.013 17.013 0 0 1-.689-.522c-1.266-1.022-2.22-2.198-2.22-2.198-3.887.255-14.8 5.307-11.292 6.417.211.066.444.19.7.366.144.1.3.211.455.355 4.13 3.464 12.168 17.52 12.224 18.586.044 1.166 1.432 1.388 1.432 1.388s-7.583 11.136-11.98 12.48c-4.396 1.343-6.617 6.661-6.617 6.661-4.34 18.375 8.282 15.488 8.282 15.488 9.304-5.54 27.701-29.233 27.335-34.629" fill="#8bbddb"/><path d="M221.272 244.537a16.134 16.134 0 0 1-.688-.522c-5.962.411-10.959 3.342-12.813 4.586.145.1.3.211.455.355 1.988-1.299 7.073-4.197 13.046-4.419M165.904 307.7a4.205 4.205 0 0 0-.344-.555c-.855.033-1.666.133-2.443.3-3.941.799-6.972 3.008-8.96 4.929-.455.444-.854.866-1.198 1.255.266.166.432.266.488.288.289-.322.622-.677.999-1.043 1.977-1.943 5.052-4.208 9.093-4.941a13.572 13.572 0 0 1 2.365-.233m59.576-79.128c-1.832-3.098-5.218-6.84-11.136-7.805-.1.155-.21.333-.31.51 6.072.91 9.437 4.852 11.18 7.939.088-.222.177-.444.266-.644" fill="#3e6575"/><path d="M124.436 127.55s-1.388-1.367-2.831-3.876c-1.444-2.509.144-4.818-6.84-10.636 0 0-14.09 8.25-20.45 18.853 0 0 .11 3.03 3.186 3.742 1.654.376 6.206-1.756 10.58-2.577a18.29 18.29 0 0 1 1.855-.256c.766-.066 1.52-.077 2.243.012.666.066 1.299.21 1.887.455h.01c1.489.61 2.666 1.822 3.277 3.942 0 0 3.74-2.132 1.243-5.74 0 0 4.44 1.943 5.84-3.92" fill="#cfd8dc"/><path d="M114.765 113.038s-14.089 8.25-20.45 18.852c0 0 2.364.5 4.318-3.009 1.954-3.519 17.276-11.502 16.132-15.843m.055 16.676c-1.142-1.81-1.12 1.532-2.641 3.098a6.6 6.6 0 0 1 1.887.455h.01c.678-.732 1.644-2.142.745-3.552m-4.43-.101c-1.21-1.144-1.599 1.843-2.309 3.442a18.252 18.252 0 0 1 1.854-.256c.71-.965 1.377-2.309.455-3.186" fill="#adbec4"/><path d="M211.113 90.944h-19.929s-.833 2.776 0 5.83c.355 1.32 2.42 2.552 4.341 4.273.533.478 1.044.977 1.521 1.544.378.444.722.932 1.01 1.454a7.24 7.24 0 0 1 .822 2.076c.322 1.51.2 3.287-.666 5.418 0 0 6.783 1.421 9.204-2.276 0 0 .233 1.71 2.387.566 0 0-.31-3.43.111-6.306.422-2.864 3.098-3.697 1.2-12.579" fill="#cfd8dc"/><path d="M205.929 102.946a.888.888 0 0 0-.666-.3.97.97 0 0 0-.59.2c-1.031.822-3.307 2.098-6.616 1.2a7.24 7.24 0 0 1 .822 2.075c1.332.49 3.84.777 6.939-1.865a.912.912 0 0 0 .11-1.31m-1.676-3.308l-.111-.167a.909.909 0 0 0-1.221-.3c-1.355.8-4.397 2.31-7.395 1.877.533.477 1.044.977 1.521 1.543 1.477.344 4.264.533 7.006-1.743.356-.3.455-.821.2-1.21" fill="#adbec4"/></g></svg>